<mxfile host="Electron" modified="2023-05-26T14:21:44.585Z" agent="Mozilla/5.0 (Windows NT 10.0; Win64; x64) AppleWebKit/537.36 (KHTML, like Gecko) draw.io/21.2.8 Chrome/112.0.5615.165 Electron/24.2.0 Safari/537.36" etag="TGtvGAyIP_xDN0KD86e-" version="21.2.8" type="device">
  <diagram name="Pagina-1" id="j8txoe0SZehhRTvvAouw">
    <mxGraphModel dx="682" dy="721" grid="1" gridSize="10" guides="1" tooltips="1" connect="1" arrows="1" fold="1" page="1" pageScale="1" pageWidth="827" pageHeight="1169" math="0" shadow="0">
      <root>
        <mxCell id="0" />
        <mxCell id="1" parent="0" />
        <mxCell id="L0hJr6_Yzj_BHi60ffFZ-1" value="&lt;p style=&quot;text-indent: -18pt; font-size: 10px;&quot; class=&quot;MsoListParagraphCxSpFirst&quot;&gt;&lt;b&gt;1.&lt;span style=&quot;line-height: 107%;&quot;&gt;&lt;/span&gt;&lt;/b&gt;&lt;b&gt;&lt;span style=&quot;line-height: 107%;&quot;&gt;creaFoglioRiepilogativo(&lt;u&gt;servizio&lt;/u&gt;: Servizio, &lt;u&gt;evento&lt;/u&gt;: Evento)&lt;/span&gt;&lt;/b&gt;&lt;span style=&quot;background-color: initial;&quot;&gt;&amp;nbsp;&lt;/span&gt;&lt;/p&gt;&lt;p class=&quot;MsoListParagraphCxSpLast&quot;&gt;&lt;/p&gt;" style="text;html=1;align=center;verticalAlign=middle;resizable=0;points=[];autosize=1;strokeColor=none;fillColor=none;" parent="1" vertex="1">
          <mxGeometry x="710" y="280" width="290" height="50" as="geometry" />
        </mxCell>
        <mxCell id="L0hJr6_Yzj_BHi60ffFZ-2" style="edgeStyle=orthogonalEdgeStyle;rounded=0;orthogonalLoop=1;jettySize=auto;html=1;exitX=0.5;exitY=1;exitDx=0;exitDy=0;endArrow=none;endFill=0;dashed=1;entryX=0.02;entryY=1.003;entryDx=0;entryDy=0;entryPerimeter=0;exitPerimeter=0;" parent="1" source="L0hJr6_Yzj_BHi60ffFZ-3" edge="1">
          <mxGeometry relative="1" as="geometry">
            <mxPoint x="54.59999999999991" y="1914.5299999999997" as="targetPoint" />
            <mxPoint x="55" y="490" as="sourcePoint" />
          </mxGeometry>
        </mxCell>
        <mxCell id="L0hJr6_Yzj_BHi60ffFZ-3" value="UI" style="shape=folder;fontStyle=1;spacingTop=10;tabWidth=40;tabHeight=14;tabPosition=left;html=1;whiteSpace=wrap;fillColor=#fff2cc;strokeColor=#d6b656;" parent="1" vertex="1">
          <mxGeometry x="20" y="350" width="70" height="50" as="geometry" />
        </mxCell>
        <mxCell id="L0hJr6_Yzj_BHi60ffFZ-4" value="createSummarySheets(Event,Service)" style="html=1;verticalAlign=bottom;endArrow=block;edgeStyle=elbowEdgeStyle;elbow=vertical;curved=0;rounded=0;" parent="1" edge="1">
          <mxGeometry width="80" relative="1" as="geometry">
            <mxPoint x="60" y="420" as="sourcePoint" />
            <mxPoint x="280" y="420" as="targetPoint" />
            <mxPoint as="offset" />
          </mxGeometry>
        </mxCell>
        <mxCell id="L0hJr6_Yzj_BHi60ffFZ-5" value="taskManager:KitchenTaskManager" style="html=1;whiteSpace=wrap;fillColor=#fff2cc;strokeColor=#d6b656;" parent="1" vertex="1">
          <mxGeometry x="180" y="360" width="200" height="30" as="geometry" />
        </mxCell>
        <mxCell id="L0hJr6_Yzj_BHi60ffFZ-6" style="edgeStyle=orthogonalEdgeStyle;rounded=0;orthogonalLoop=1;jettySize=auto;html=1;exitX=0.5;exitY=1;exitDx=0;exitDy=0;endArrow=none;endFill=0;dashed=1;entryX=0.15;entryY=1.001;entryDx=0;entryDy=0;entryPerimeter=0;" parent="1" source="L0hJr6_Yzj_BHi60ffFZ-5" edge="1">
          <mxGeometry relative="1" as="geometry">
            <mxPoint x="279.5" y="1911.5099999999998" as="targetPoint" />
            <mxPoint x="279.47" y="490" as="sourcePoint" />
          </mxGeometry>
        </mxCell>
        <mxCell id="L0hJr6_Yzj_BHi60ffFZ-7" value="getCurrentUser()" style="html=1;verticalAlign=bottom;endArrow=block;edgeStyle=elbowEdgeStyle;elbow=vertical;curved=0;rounded=0;" parent="1" edge="1">
          <mxGeometry width="80" relative="1" as="geometry">
            <mxPoint x="280" y="430" as="sourcePoint" />
            <mxPoint x="480" y="430" as="targetPoint" />
          </mxGeometry>
        </mxCell>
        <mxCell id="L0hJr6_Yzj_BHi60ffFZ-8" value="user" style="html=1;verticalAlign=bottom;endArrow=open;dashed=1;endSize=8;edgeStyle=elbowEdgeStyle;elbow=vertical;curved=0;rounded=0;" parent="1" edge="1">
          <mxGeometry relative="1" as="geometry">
            <mxPoint x="475" y="470.2857142857142" as="sourcePoint" />
            <mxPoint x="280" y="470" as="targetPoint" />
          </mxGeometry>
        </mxCell>
        <mxCell id="L0hJr6_Yzj_BHi60ffFZ-10" value="" style="html=1;points=[];perimeter=orthogonalPerimeter;outlineConnect=0;targetShapes=umlLifeline;portConstraint=eastwest;newEdgeStyle={&quot;edgeStyle&quot;:&quot;elbowEdgeStyle&quot;,&quot;elbow&quot;:&quot;vertical&quot;,&quot;curved&quot;:0,&quot;rounded&quot;:0};shadow=0;imageAspect=1;fillOpacity=50;strokeOpacity=50;" parent="1" vertex="1">
          <mxGeometry x="475" y="430" width="10" height="40" as="geometry" />
        </mxCell>
        <mxCell id="L0hJr6_Yzj_BHi60ffFZ-11" value="" style="html=1;points=[];perimeter=orthogonalPerimeter;outlineConnect=0;targetShapes=umlLifeline;portConstraint=eastwest;newEdgeStyle={&quot;edgeStyle&quot;:&quot;elbowEdgeStyle&quot;,&quot;elbow&quot;:&quot;vertical&quot;,&quot;curved&quot;:0,&quot;rounded&quot;:0};shadow=0;imageAspect=1;fillOpacity=50;strokeOpacity=50;" parent="1" vertex="1">
          <mxGeometry x="275" y="430" width="10" height="1370" as="geometry" />
        </mxCell>
        <mxCell id="L0hJr6_Yzj_BHi60ffFZ-12" value="createSummarySheets()" style="html=1;verticalAlign=bottom;endArrow=block;edgeStyle=elbowEdgeStyle;elbow=vertical;curved=0;rounded=0;" parent="1" edge="1">
          <mxGeometry x="-0.0018" width="80" relative="1" as="geometry">
            <mxPoint x="285" y="640" as="sourcePoint" />
            <mxPoint x="650" y="640" as="targetPoint" />
            <mxPoint as="offset" />
          </mxGeometry>
        </mxCell>
        <mxCell id="L0hJr6_Yzj_BHi60ffFZ-13" value="&lt;font style=&quot;font-size: 10px;&quot;&gt;LOOP:for all section in menu.section&lt;/font&gt;" style="shape=umlFrame;whiteSpace=wrap;html=1;pointerEvents=0;width=190;height=20;" parent="1" vertex="1">
          <mxGeometry x="890" y="730" width="770" height="220" as="geometry" />
        </mxCell>
        <mxCell id="L0hJr6_Yzj_BHi60ffFZ-14" value="service: Service" style="html=1;whiteSpace=wrap;fillColor=#fff2cc;strokeColor=#d6b656;" parent="1" vertex="1">
          <mxGeometry x="600" y="360" width="100" height="30" as="geometry" />
        </mxCell>
        <mxCell id="L0hJr6_Yzj_BHi60ffFZ-15" style="edgeStyle=orthogonalEdgeStyle;rounded=0;orthogonalLoop=1;jettySize=auto;html=1;exitX=0.5;exitY=1;exitDx=0;exitDy=0;endArrow=none;endFill=0;dashed=1;" parent="1" source="L0hJr6_Yzj_BHi60ffFZ-14" edge="1">
          <mxGeometry relative="1" as="geometry">
            <mxPoint x="650" y="1720" as="targetPoint" />
            <mxPoint x="649.47" y="490" as="sourcePoint" />
          </mxGeometry>
        </mxCell>
        <mxCell id="L0hJr6_Yzj_BHi60ffFZ-16" value="" style="html=1;points=[];perimeter=orthogonalPerimeter;outlineConnect=0;targetShapes=umlLifeline;portConstraint=eastwest;newEdgeStyle={&quot;edgeStyle&quot;:&quot;elbowEdgeStyle&quot;,&quot;elbow&quot;:&quot;vertical&quot;,&quot;curved&quot;:0,&quot;rounded&quot;:0};shadow=0;imageAspect=1;fillOpacity=50;strokeOpacity=50;" parent="1" vertex="1">
          <mxGeometry x="645" y="640" width="10" height="920" as="geometry" />
        </mxCell>
        <mxCell id="L0hJr6_Yzj_BHi60ffFZ-17" value="&lt;font style=&quot;font-size: 9px;&quot;&gt;create(this.getMenu())&lt;/font&gt;" style="html=1;verticalAlign=bottom;endArrow=block;edgeStyle=elbowEdgeStyle;elbow=vertical;curved=0;rounded=0;dashed=1;" parent="1" edge="1">
          <mxGeometry x="-0.4865" width="80" relative="1" as="geometry">
            <mxPoint x="655" y="650" as="sourcePoint" />
            <mxPoint x="870" y="650" as="targetPoint" />
            <mxPoint as="offset" />
          </mxGeometry>
        </mxCell>
        <mxCell id="L0hJr6_Yzj_BHi60ffFZ-18" value="sheet: SummarySheet" style="html=1;whiteSpace=wrap;fillColor=#fff2cc;strokeColor=#d6b656;" parent="1" vertex="1">
          <mxGeometry x="870" y="630" width="130" height="30" as="geometry" />
        </mxCell>
        <mxCell id="L0hJr6_Yzj_BHi60ffFZ-19" style="edgeStyle=orthogonalEdgeStyle;rounded=0;orthogonalLoop=1;jettySize=auto;html=1;exitX=0.5;exitY=1;exitDx=0;exitDy=0;endArrow=none;endFill=0;dashed=1;" parent="1" edge="1">
          <mxGeometry relative="1" as="geometry">
            <mxPoint x="935" y="1640" as="targetPoint" />
            <mxPoint x="934.47" y="660.0000000000001" as="sourcePoint" />
          </mxGeometry>
        </mxCell>
        <mxCell id="L0hJr6_Yzj_BHi60ffFZ-20" value="&lt;font style=&quot;font-size: 9px;&quot;&gt;create()&lt;/font&gt;" style="html=1;verticalAlign=bottom;endArrow=block;edgeStyle=elbowEdgeStyle;elbow=vertical;curved=0;rounded=0;dashed=1;" parent="1" edge="1">
          <mxGeometry x="0.0024" width="80" relative="1" as="geometry">
            <mxPoint x="940" y="700.32" as="sourcePoint" />
            <mxPoint x="1150" y="700" as="targetPoint" />
            <mxPoint as="offset" />
          </mxGeometry>
        </mxCell>
        <mxCell id="L0hJr6_Yzj_BHi60ffFZ-21" value="kpList: ArrayList&amp;lt;KitchenProcedure&amp;gt;" style="html=1;whiteSpace=wrap;fillColor=#fff2cc;strokeColor=#d6b656;" parent="1" vertex="1">
          <mxGeometry x="1070" y="360" width="170" height="30" as="geometry" />
        </mxCell>
        <mxCell id="L0hJr6_Yzj_BHi60ffFZ-22" style="edgeStyle=orthogonalEdgeStyle;rounded=0;orthogonalLoop=1;jettySize=auto;html=1;exitX=0.5;exitY=1;exitDx=0;exitDy=0;endArrow=none;endFill=0;dashed=1;" parent="1" source="L0hJr6_Yzj_BHi60ffFZ-21" edge="1">
          <mxGeometry relative="1" as="geometry">
            <mxPoint x="1155" y="1640" as="targetPoint" />
            <mxPoint x="1154.47" y="490" as="sourcePoint" />
          </mxGeometry>
        </mxCell>
        <mxCell id="L0hJr6_Yzj_BHi60ffFZ-23" value="" style="html=1;points=[];perimeter=orthogonalPerimeter;outlineConnect=0;targetShapes=umlLifeline;portConstraint=eastwest;newEdgeStyle={&quot;edgeStyle&quot;:&quot;elbowEdgeStyle&quot;,&quot;elbow&quot;:&quot;vertical&quot;,&quot;curved&quot;:0,&quot;rounded&quot;:0};shadow=0;imageAspect=1;fillOpacity=50;strokeOpacity=50;" parent="1" vertex="1">
          <mxGeometry x="1150" y="700" width="10" height="20" as="geometry" />
        </mxCell>
        <mxCell id="L0hJr6_Yzj_BHi60ffFZ-24" value="kpList" style="html=1;verticalAlign=bottom;endArrow=open;dashed=1;endSize=8;edgeStyle=elbowEdgeStyle;elbow=vertical;curved=0;rounded=0;" parent="1" edge="1">
          <mxGeometry x="0.049" relative="1" as="geometry">
            <mxPoint x="1150" y="720" as="sourcePoint" />
            <mxPoint x="940" y="720.32" as="targetPoint" />
            <mxPoint as="offset" />
          </mxGeometry>
        </mxCell>
        <mxCell id="L0hJr6_Yzj_BHi60ffFZ-25" value="&lt;font style=&quot;font-size: 10px;&quot;&gt;LOOP: for all menuitem in section.sectionItem&lt;/font&gt;" style="shape=umlFrame;whiteSpace=wrap;html=1;pointerEvents=0;width=280;height=20;" parent="1" vertex="1">
          <mxGeometry x="910" y="760" width="730" height="180" as="geometry" />
        </mxCell>
        <mxCell id="L0hJr6_Yzj_BHi60ffFZ-26" value="&lt;font style=&quot;font-size: 9px;&quot;&gt;add(menuitem.itemRecipe)&lt;/font&gt;" style="html=1;verticalAlign=bottom;endArrow=block;edgeStyle=elbowEdgeStyle;elbow=vertical;curved=0;rounded=0;" parent="1" edge="1">
          <mxGeometry x="0.0024" width="80" relative="1" as="geometry">
            <mxPoint x="940" y="800.32" as="sourcePoint" />
            <mxPoint x="1150" y="800" as="targetPoint" />
            <mxPoint as="offset" />
          </mxGeometry>
        </mxCell>
        <mxCell id="L0hJr6_Yzj_BHi60ffFZ-27" value="" style="html=1;points=[];perimeter=orthogonalPerimeter;outlineConnect=0;targetShapes=umlLifeline;portConstraint=eastwest;newEdgeStyle={&quot;edgeStyle&quot;:&quot;elbowEdgeStyle&quot;,&quot;elbow&quot;:&quot;vertical&quot;,&quot;curved&quot;:0,&quot;rounded&quot;:0};shadow=0;imageAspect=1;fillOpacity=50;strokeOpacity=50;" parent="1" vertex="1">
          <mxGeometry x="1150" y="800" width="10" height="20" as="geometry" />
        </mxCell>
        <mxCell id="L0hJr6_Yzj_BHi60ffFZ-28" value="menuItem.itemRecipe: Recipe" style="html=1;whiteSpace=wrap;fillColor=#fff2cc;strokeColor=#d6b656;" parent="1" vertex="1">
          <mxGeometry x="1520" y="360" width="170" height="30" as="geometry" />
        </mxCell>
        <mxCell id="L0hJr6_Yzj_BHi60ffFZ-29" style="edgeStyle=orthogonalEdgeStyle;rounded=0;orthogonalLoop=1;jettySize=auto;html=1;exitX=0.473;exitY=1.039;exitDx=0;exitDy=0;endArrow=none;endFill=0;dashed=1;exitPerimeter=0;" parent="1" source="L0hJr6_Yzj_BHi60ffFZ-28" edge="1">
          <mxGeometry relative="1" as="geometry">
            <mxPoint x="1600" y="1661.2308443509614" as="targetPoint" />
            <mxPoint x="1600" y="490" as="sourcePoint" />
          </mxGeometry>
        </mxCell>
        <mxCell id="L0hJr6_Yzj_BHi60ffFZ-30" value="&lt;font style=&quot;font-size: 9px;&quot;&gt;getInstructions()&lt;/font&gt;" style="html=1;verticalAlign=bottom;endArrow=block;edgeStyle=elbowEdgeStyle;elbow=vertical;curved=0;rounded=0;align=center;" parent="1" edge="1">
          <mxGeometry x="-0.8183" width="80" relative="1" as="geometry">
            <mxPoint x="940" y="850.32" as="sourcePoint" />
            <mxPoint x="1601.2308443509614" y="850" as="targetPoint" />
            <mxPoint as="offset" />
          </mxGeometry>
        </mxCell>
        <mxCell id="L0hJr6_Yzj_BHi60ffFZ-31" value="instructions" style="html=1;verticalAlign=bottom;endArrow=open;dashed=1;endSize=8;edgeStyle=elbowEdgeStyle;elbow=vertical;curved=0;rounded=0;align=center;" parent="1" edge="1">
          <mxGeometry relative="1" as="geometry">
            <mxPoint x="1600" y="870" as="sourcePoint" />
            <mxPoint x="940" y="870.32" as="targetPoint" />
          </mxGeometry>
        </mxCell>
        <mxCell id="L0hJr6_Yzj_BHi60ffFZ-32" value="&lt;font style=&quot;font-size: 9px;&quot;&gt;addAll(subRecipe)&lt;/font&gt;" style="html=1;verticalAlign=bottom;endArrow=block;edgeStyle=elbowEdgeStyle;elbow=vertical;curved=0;rounded=0;" parent="1" edge="1">
          <mxGeometry x="0.0024" width="80" relative="1" as="geometry">
            <mxPoint x="940" y="910.32" as="sourcePoint" />
            <mxPoint x="1150" y="910" as="targetPoint" />
            <mxPoint as="offset" />
          </mxGeometry>
        </mxCell>
        <mxCell id="L0hJr6_Yzj_BHi60ffFZ-33" value="" style="html=1;points=[];perimeter=orthogonalPerimeter;outlineConnect=0;targetShapes=umlLifeline;portConstraint=eastwest;newEdgeStyle={&quot;edgeStyle&quot;:&quot;elbowEdgeStyle&quot;,&quot;elbow&quot;:&quot;vertical&quot;,&quot;curved&quot;:0,&quot;rounded&quot;:0};shadow=0;imageAspect=1;fillOpacity=50;strokeOpacity=50;" parent="1" vertex="1">
          <mxGeometry x="1150" y="910" width="10" height="20" as="geometry" />
        </mxCell>
        <mxCell id="L0hJr6_Yzj_BHi60ffFZ-34" value="" style="html=1;points=[];perimeter=orthogonalPerimeter;outlineConnect=0;targetShapes=umlLifeline;portConstraint=eastwest;newEdgeStyle={&quot;edgeStyle&quot;:&quot;elbowEdgeStyle&quot;,&quot;elbow&quot;:&quot;vertical&quot;,&quot;curved&quot;:0,&quot;rounded&quot;:0};shadow=0;imageAspect=1;fillOpacity=50;strokeOpacity=50;" parent="1" vertex="1">
          <mxGeometry x="1590" y="850" width="20" height="20" as="geometry" />
        </mxCell>
        <mxCell id="L0hJr6_Yzj_BHi60ffFZ-35" value="&lt;font style=&quot;font-size: 10px;&quot;&gt;LOOP:for all kitchenProcedure in kpList&lt;/font&gt;" style="shape=umlFrame;whiteSpace=wrap;html=1;pointerEvents=0;width=200;height=20;" parent="1" vertex="1">
          <mxGeometry x="890" y="1200" width="960" height="270" as="geometry" />
        </mxCell>
        <mxCell id="L0hJr6_Yzj_BHi60ffFZ-36" value="&lt;font style=&quot;font-size: 9px;&quot;&gt;create()&lt;/font&gt;" style="html=1;verticalAlign=bottom;endArrow=block;edgeStyle=elbowEdgeStyle;elbow=vertical;curved=0;rounded=0;dashed=1;" parent="1" edge="1">
          <mxGeometry x="0.0024" width="80" relative="1" as="geometry">
            <mxPoint x="940" y="1160.3200000000002" as="sourcePoint" />
            <mxPoint x="1240" y="1160" as="targetPoint" />
            <mxPoint as="offset" />
          </mxGeometry>
        </mxCell>
        <mxCell id="L0hJr6_Yzj_BHi60ffFZ-37" value="taskList: Arraylist&amp;lt;Task&amp;gt;" style="html=1;whiteSpace=wrap;fillColor=#fff2cc;strokeColor=#d6b656;" parent="1" vertex="1">
          <mxGeometry x="1241" y="1140" width="170" height="30" as="geometry" />
        </mxCell>
        <mxCell id="L0hJr6_Yzj_BHi60ffFZ-38" style="edgeStyle=orthogonalEdgeStyle;rounded=0;orthogonalLoop=1;jettySize=auto;html=1;exitX=0.5;exitY=1;exitDx=0;exitDy=0;endArrow=none;endFill=0;dashed=1;" parent="1" edge="1">
          <mxGeometry relative="1" as="geometry">
            <mxPoint x="1325.8200000000002" y="1820.63994140625" as="targetPoint" />
            <mxPoint x="1325.62" y="1170" as="sourcePoint" />
          </mxGeometry>
        </mxCell>
        <mxCell id="L0hJr6_Yzj_BHi60ffFZ-39" value="" style="html=1;points=[];perimeter=orthogonalPerimeter;outlineConnect=0;targetShapes=umlLifeline;portConstraint=eastwest;newEdgeStyle={&quot;edgeStyle&quot;:&quot;elbowEdgeStyle&quot;,&quot;elbow&quot;:&quot;vertical&quot;,&quot;curved&quot;:0,&quot;rounded&quot;:0};shadow=0;imageAspect=1;fillOpacity=50;strokeOpacity=50;" parent="1" vertex="1">
          <mxGeometry x="1321" y="1170" width="10" height="20" as="geometry" />
        </mxCell>
        <mxCell id="L0hJr6_Yzj_BHi60ffFZ-40" value="taskList" style="html=1;verticalAlign=bottom;endArrow=open;dashed=1;endSize=8;edgeStyle=elbowEdgeStyle;elbow=vertical;curved=0;rounded=0;align=center;" parent="1" edge="1">
          <mxGeometry x="0.2127" relative="1" as="geometry">
            <mxPoint x="1320" y="1190" as="sourcePoint" />
            <mxPoint x="940" y="1190.3200000000002" as="targetPoint" />
            <mxPoint as="offset" />
          </mxGeometry>
        </mxCell>
        <mxCell id="L0hJr6_Yzj_BHi60ffFZ-41" value="&lt;font style=&quot;font-size: 9px;&quot;&gt;create(kitchenProcedure)&lt;/font&gt;" style="html=1;verticalAlign=bottom;endArrow=block;edgeStyle=elbowEdgeStyle;elbow=vertical;curved=0;rounded=0;dashed=1;" parent="1" edge="1">
          <mxGeometry x="-0.6919" y="1" width="80" relative="1" as="geometry">
            <mxPoint x="940" y="1240.3200000000002" as="sourcePoint" />
            <mxPoint x="1460" y="1240" as="targetPoint" />
            <mxPoint as="offset" />
          </mxGeometry>
        </mxCell>
        <mxCell id="L0hJr6_Yzj_BHi60ffFZ-42" value="task: Task" style="html=1;whiteSpace=wrap;fillColor=#fff2cc;strokeColor=#d6b656;" parent="1" vertex="1">
          <mxGeometry x="1470.5" y="1210" width="109" height="30" as="geometry" />
        </mxCell>
        <mxCell id="L0hJr6_Yzj_BHi60ffFZ-43" style="edgeStyle=orthogonalEdgeStyle;rounded=0;orthogonalLoop=1;jettySize=auto;html=1;exitX=0.5;exitY=1;exitDx=0;exitDy=0;endArrow=none;endFill=0;dashed=1;" parent="1" source="L0hJr6_Yzj_BHi60ffFZ-42" edge="1">
          <mxGeometry relative="1" as="geometry">
            <mxPoint x="1524" y="1943.9999389648438" as="targetPoint" />
            <mxPoint x="1524.1399999999999" y="790" as="sourcePoint" />
          </mxGeometry>
        </mxCell>
        <mxCell id="L0hJr6_Yzj_BHi60ffFZ-44" value="" style="html=1;points=[];perimeter=orthogonalPerimeter;outlineConnect=0;targetShapes=umlLifeline;portConstraint=eastwest;newEdgeStyle={&quot;edgeStyle&quot;:&quot;elbowEdgeStyle&quot;,&quot;elbow&quot;:&quot;vertical&quot;,&quot;curved&quot;:0,&quot;rounded&quot;:0};shadow=0;imageAspect=1;fillOpacity=50;strokeOpacity=50;" parent="1" vertex="1">
          <mxGeometry x="1520" y="1240" width="10" height="160" as="geometry" />
        </mxCell>
        <mxCell id="L0hJr6_Yzj_BHi60ffFZ-45" value="this.cookProcedure = kitchenProcedure" style="html=1;align=left;spacingLeft=2;endArrow=block;rounded=0;edgeStyle=orthogonalEdgeStyle;curved=0;rounded=0;" parent="1" edge="1">
          <mxGeometry x="-0.0035" relative="1" as="geometry">
            <mxPoint x="1530" y="1360" as="sourcePoint" />
            <Array as="points">
              <mxPoint x="1560" y="1390" />
            </Array>
            <mxPoint x="1535" y="1390.0000000000002" as="targetPoint" />
            <mxPoint as="offset" />
          </mxGeometry>
        </mxCell>
        <mxCell id="L0hJr6_Yzj_BHi60ffFZ-46" value="task" style="html=1;verticalAlign=bottom;endArrow=open;dashed=1;endSize=8;edgeStyle=elbowEdgeStyle;elbow=vertical;curved=0;rounded=0;align=center;" parent="1" edge="1">
          <mxGeometry x="0.8228" y="1" relative="1" as="geometry">
            <mxPoint x="1510" y="1399.3899999999999" as="sourcePoint" />
            <mxPoint x="940" y="1400" as="targetPoint" />
            <mxPoint as="offset" />
          </mxGeometry>
        </mxCell>
        <mxCell id="L0hJr6_Yzj_BHi60ffFZ-47" value="&lt;font style=&quot;font-size: 9px;&quot;&gt;add(task)&lt;/font&gt;" style="html=1;verticalAlign=bottom;endArrow=block;edgeStyle=elbowEdgeStyle;elbow=vertical;curved=0;rounded=0;" parent="1" edge="1">
          <mxGeometry x="-0.7369" width="80" relative="1" as="geometry">
            <mxPoint x="940" y="1440.3200000000002" as="sourcePoint" />
            <mxPoint x="1320" y="1440" as="targetPoint" />
            <mxPoint as="offset" />
          </mxGeometry>
        </mxCell>
        <mxCell id="L0hJr6_Yzj_BHi60ffFZ-48" value="" style="html=1;points=[];perimeter=orthogonalPerimeter;outlineConnect=0;targetShapes=umlLifeline;portConstraint=eastwest;newEdgeStyle={&quot;edgeStyle&quot;:&quot;elbowEdgeStyle&quot;,&quot;elbow&quot;:&quot;vertical&quot;,&quot;curved&quot;:0,&quot;rounded&quot;:0};shadow=0;imageAspect=1;fillOpacity=50;strokeOpacity=50;" parent="1" vertex="1">
          <mxGeometry x="1321" y="1440" width="10" height="20" as="geometry" />
        </mxCell>
        <mxCell id="L0hJr6_Yzj_BHi60ffFZ-49" value="" style="html=1;points=[];perimeter=orthogonalPerimeter;outlineConnect=0;targetShapes=umlLifeline;portConstraint=eastwest;newEdgeStyle={&quot;edgeStyle&quot;:&quot;elbowEdgeStyle&quot;,&quot;elbow&quot;:&quot;vertical&quot;,&quot;curved&quot;:0,&quot;rounded&quot;:0};shadow=0;imageAspect=1;fillOpacity=29;strokeOpacity=23;" parent="1" vertex="1">
          <mxGeometry x="930" y="700" width="10" height="790" as="geometry" />
        </mxCell>
        <mxCell id="L0hJr6_Yzj_BHi60ffFZ-50" value="sheet" style="html=1;verticalAlign=bottom;endArrow=open;dashed=1;endSize=8;edgeStyle=elbowEdgeStyle;elbow=vertical;curved=0;rounded=0;align=center;" parent="1" edge="1">
          <mxGeometry x="0.8228" y="1" relative="1" as="geometry">
            <mxPoint x="930" y="1489.9999999999998" as="sourcePoint" />
            <mxPoint x="660" y="1491" as="targetPoint" />
            <mxPoint as="offset" />
          </mxGeometry>
        </mxCell>
        <mxCell id="L0hJr6_Yzj_BHi60ffFZ-51" value="this.sheet = sheet" style="html=1;align=left;spacingLeft=2;endArrow=block;rounded=0;edgeStyle=orthogonalEdgeStyle;curved=0;rounded=0;" parent="1" edge="1">
          <mxGeometry relative="1" as="geometry">
            <mxPoint x="655" y="1520" as="sourcePoint" />
            <Array as="points">
              <mxPoint x="685" y="1550" />
            </Array>
            <mxPoint x="660" y="1549.9999999999998" as="targetPoint" />
          </mxGeometry>
        </mxCell>
        <mxCell id="L0hJr6_Yzj_BHi60ffFZ-52" value="sheet" style="html=1;verticalAlign=bottom;endArrow=open;dashed=1;endSize=8;edgeStyle=elbowEdgeStyle;elbow=vertical;curved=0;rounded=0;align=center;" parent="1" edge="1">
          <mxGeometry x="0.8228" y="1" relative="1" as="geometry">
            <mxPoint x="645" y="1559.9999999999998" as="sourcePoint" />
            <mxPoint x="280" y="1561" as="targetPoint" />
            <mxPoint as="offset" />
          </mxGeometry>
        </mxCell>
        <mxCell id="L0hJr6_Yzj_BHi60ffFZ-53" value="this.currentSheet = sheet" style="html=1;align=left;spacingLeft=2;endArrow=block;rounded=0;edgeStyle=orthogonalEdgeStyle;curved=0;rounded=0;" parent="1" edge="1">
          <mxGeometry relative="1" as="geometry">
            <mxPoint x="285" y="1580" as="sourcePoint" />
            <Array as="points">
              <mxPoint x="315" y="1610" />
            </Array>
            <mxPoint x="290" y="1609.9999999999998" as="targetPoint" />
          </mxGeometry>
        </mxCell>
        <mxCell id="L0hJr6_Yzj_BHi60ffFZ-54" value="notifySheetCreate(sheet)" style="html=1;align=left;spacingLeft=2;endArrow=block;rounded=0;edgeStyle=orthogonalEdgeStyle;curved=0;rounded=0;" parent="1" edge="1">
          <mxGeometry relative="1" as="geometry">
            <mxPoint x="285" y="1630" as="sourcePoint" />
            <Array as="points">
              <mxPoint x="315" y="1660" />
            </Array>
            <mxPoint x="290" y="1659.9999999999998" as="targetPoint" />
          </mxGeometry>
        </mxCell>
        <mxCell id="L0hJr6_Yzj_BHi60ffFZ-55" value="&lt;font style=&quot;font-size: 10px;&quot;&gt;LOOP:for all ktListener in eventReceiver&lt;/font&gt;" style="shape=umlFrame;whiteSpace=wrap;html=1;pointerEvents=0;width=200;height=20;" parent="1" vertex="1">
          <mxGeometry x="240" y="1670" width="630" height="100" as="geometry" />
        </mxCell>
        <mxCell id="L0hJr6_Yzj_BHi60ffFZ-56" value="ktListener: KitchenTaskEventReceiver" style="html=1;whiteSpace=wrap;fillColor=#fff2cc;strokeColor=#d6b656;" parent="1" vertex="1">
          <mxGeometry x="720" y="360" width="160" height="30" as="geometry" />
        </mxCell>
        <mxCell id="L0hJr6_Yzj_BHi60ffFZ-57" style="edgeStyle=orthogonalEdgeStyle;rounded=0;orthogonalLoop=1;jettySize=auto;html=1;exitX=0.5;exitY=1;exitDx=0;exitDy=0;endArrow=none;endFill=0;dashed=1;" parent="1" source="L0hJr6_Yzj_BHi60ffFZ-56" edge="1">
          <mxGeometry relative="1" as="geometry">
            <mxPoint x="800" y="1720" as="targetPoint" />
            <mxPoint x="799.48" y="490" as="sourcePoint" />
          </mxGeometry>
        </mxCell>
        <mxCell id="L0hJr6_Yzj_BHi60ffFZ-58" value="updateSheetCreate(sheet)" style="html=1;verticalAlign=bottom;endArrow=block;edgeStyle=elbowEdgeStyle;elbow=vertical;curved=0;rounded=0;" parent="1" edge="1">
          <mxGeometry x="-0.7077" width="80" relative="1" as="geometry">
            <mxPoint x="285" y="1720" as="sourcePoint" />
            <mxPoint x="800" y="1720" as="targetPoint" />
            <mxPoint as="offset" />
          </mxGeometry>
        </mxCell>
        <mxCell id="L0hJr6_Yzj_BHi60ffFZ-59" value="" style="html=1;points=[];perimeter=orthogonalPerimeter;outlineConnect=0;targetShapes=umlLifeline;portConstraint=eastwest;newEdgeStyle={&quot;edgeStyle&quot;:&quot;elbowEdgeStyle&quot;,&quot;elbow&quot;:&quot;vertical&quot;,&quot;curved&quot;:0,&quot;rounded&quot;:0};shadow=0;imageAspect=1;fillOpacity=50;strokeOpacity=50;" parent="1" vertex="1">
          <mxGeometry x="795" y="1720" width="10" height="30" as="geometry" />
        </mxCell>
        <mxCell id="L0hJr6_Yzj_BHi60ffFZ-60" value="sheet" style="html=1;verticalAlign=bottom;endArrow=open;dashed=1;endSize=8;edgeStyle=elbowEdgeStyle;elbow=vertical;curved=0;rounded=0;align=center;" parent="1" edge="1">
          <mxGeometry x="0.8228" y="1" relative="1" as="geometry">
            <mxPoint x="280" y="1800" as="sourcePoint" />
            <mxPoint x="60" y="1801" as="targetPoint" />
            <mxPoint as="offset" />
          </mxGeometry>
        </mxCell>
        <mxCell id="L0hJr6_Yzj_BHi60ffFZ-61" value="ALT !user.ischef() || event.assignedChef() != user" style="shape=umlFrame;whiteSpace=wrap;html=1;pointerEvents=0;width=250;height=30;fillColor=#f8cecc;strokeColor=#b85450;" parent="1" vertex="1">
          <mxGeometry x="20" y="480" width="1850" height="1510" as="geometry" />
        </mxCell>
        <mxCell id="L0hJr6_Yzj_BHi60ffFZ-62" style="edgeStyle=orthogonalEdgeStyle;rounded=0;orthogonalLoop=1;jettySize=auto;html=1;endArrow=none;endFill=0;dashed=1;fillColor=#f8cecc;strokeColor=#b85450;" parent="1" edge="1">
          <mxGeometry relative="1" as="geometry">
            <mxPoint x="1880" y="600" as="targetPoint" />
            <mxPoint x="20" y="600" as="sourcePoint" />
            <Array as="points">
              <mxPoint x="20" y="601" />
              <mxPoint x="976" y="601" />
              <mxPoint x="976" y="600" />
              <mxPoint x="1931" y="600" />
            </Array>
          </mxGeometry>
        </mxCell>
        <mxCell id="L0hJr6_Yzj_BHi60ffFZ-63" value="UserMng: UserManager" style="html=1;whiteSpace=wrap;fillColor=#fff2cc;strokeColor=#d6b656;" parent="1" vertex="1">
          <mxGeometry x="410" y="360" width="140" height="30" as="geometry" />
        </mxCell>
        <mxCell id="L0hJr6_Yzj_BHi60ffFZ-64" value="throwUseLogicException" style="html=1;verticalAlign=bottom;endArrow=open;dashed=1;endSize=8;edgeStyle=elbowEdgeStyle;elbow=vertical;curved=0;rounded=0;" parent="1" edge="1">
          <mxGeometry relative="1" as="geometry">
            <mxPoint x="275" y="530" as="sourcePoint" />
            <mxPoint x="60" y="530" as="targetPoint" />
          </mxGeometry>
        </mxCell>
        <mxCell id="L0hJr6_Yzj_BHi60ffFZ-65" value="service.state != inProgress ||&amp;nbsp;&amp;nbsp;service.SummarySheet != null || service.menu == null" style="shape=umlFrame;whiteSpace=wrap;html=1;pointerEvents=0;width=470;height=20;fillColor=#f8cecc;strokeColor=#b85450;" parent="1" vertex="1">
          <mxGeometry x="20" y="540" width="1850" height="1450" as="geometry" />
        </mxCell>
        <mxCell id="L0hJr6_Yzj_BHi60ffFZ-66" value="throwEventException" style="html=1;verticalAlign=bottom;endArrow=open;dashed=1;endSize=8;edgeStyle=elbowEdgeStyle;elbow=vertical;curved=0;rounded=0;" parent="1" edge="1">
          <mxGeometry relative="1" as="geometry">
            <mxPoint x="275" y="580" as="sourcePoint" />
            <mxPoint x="60" y="580" as="targetPoint" />
          </mxGeometry>
        </mxCell>
        <mxCell id="L0hJr6_Yzj_BHi60ffFZ-67" value="this.amount = 0" style="html=1;align=left;spacingLeft=2;endArrow=block;rounded=0;edgeStyle=orthogonalEdgeStyle;curved=0;rounded=0;" parent="1" edge="1">
          <mxGeometry relative="1" as="geometry">
            <mxPoint x="1530" y="1250" as="sourcePoint" />
            <Array as="points">
              <mxPoint x="1560" y="1250" />
              <mxPoint x="1560" y="1270" />
              <mxPoint x="1535" y="1270" />
            </Array>
            <mxPoint x="1530" y="1270" as="targetPoint" />
            <mxPoint as="offset" />
          </mxGeometry>
        </mxCell>
        <mxCell id="L0hJr6_Yzj_BHi60ffFZ-68" value="this.estimatedTime&amp;nbsp;= 0" style="html=1;align=left;spacingLeft=2;endArrow=block;rounded=0;edgeStyle=orthogonalEdgeStyle;curved=0;rounded=0;" parent="1" edge="1">
          <mxGeometry x="0.0084" relative="1" as="geometry">
            <mxPoint x="1530" y="1280" as="sourcePoint" />
            <Array as="points">
              <mxPoint x="1560" y="1280" />
              <mxPoint x="1560" y="1290" />
              <mxPoint x="1535" y="1290" />
            </Array>
            <mxPoint x="1530" y="1290" as="targetPoint" />
            <mxPoint as="offset" />
          </mxGeometry>
        </mxCell>
        <mxCell id="L0hJr6_Yzj_BHi60ffFZ-70" value="this.isDone = false" style="html=1;align=left;spacingLeft=2;endArrow=block;rounded=0;edgeStyle=orthogonalEdgeStyle;curved=0;rounded=0;" parent="1" edge="1">
          <mxGeometry x="0.0036" relative="1" as="geometry">
            <mxPoint x="1530" y="1319.94" as="sourcePoint" />
            <Array as="points">
              <mxPoint x="1560" y="1319.94" />
              <mxPoint x="1560" y="1329.94" />
              <mxPoint x="1535" y="1329.94" />
            </Array>
            <mxPoint x="1530" y="1329.94" as="targetPoint" />
            <mxPoint as="offset" />
          </mxGeometry>
        </mxCell>
        <mxCell id="L0hJr6_Yzj_BHi60ffFZ-71" value="this.turn = null" style="html=1;align=left;spacingLeft=2;endArrow=block;rounded=0;edgeStyle=orthogonalEdgeStyle;curved=0;rounded=0;" parent="1" edge="1">
          <mxGeometry x="0.0036" relative="1" as="geometry">
            <mxPoint x="1530" y="1340.04" as="sourcePoint" />
            <Array as="points">
              <mxPoint x="1560" y="1340.04" />
              <mxPoint x="1560" y="1350.04" />
              <mxPoint x="1535" y="1350.04" />
            </Array>
            <mxPoint x="1530" y="1350.04" as="targetPoint" />
            <mxPoint as="offset" />
          </mxGeometry>
        </mxCell>
        <mxCell id="dS2BFjz72sKNmgG7DrdJ-1" value="&lt;font style=&quot;font-size: 10px;&quot;&gt;LOOP: for all freeItem in menu.freeItems&lt;/font&gt;" style="shape=umlFrame;whiteSpace=wrap;html=1;pointerEvents=0;width=200;height=20;" parent="1" vertex="1">
          <mxGeometry x="890" y="960" width="830" height="170" as="geometry" />
        </mxCell>
        <mxCell id="dS2BFjz72sKNmgG7DrdJ-2" value="&lt;font style=&quot;font-size: 9px;&quot;&gt;add(freeItem)&lt;/font&gt;" style="html=1;verticalAlign=bottom;endArrow=block;edgeStyle=elbowEdgeStyle;elbow=vertical;curved=0;rounded=0;" parent="1" edge="1">
          <mxGeometry x="-0.6196" y="1" width="80" relative="1" as="geometry">
            <mxPoint x="940" y="1010.6400000000001" as="sourcePoint" />
            <mxPoint x="1150" y="1010" as="targetPoint" />
            <mxPoint as="offset" />
          </mxGeometry>
        </mxCell>
        <mxCell id="dS2BFjz72sKNmgG7DrdJ-3" value="&lt;font style=&quot;font-size: 9px;&quot;&gt;getSubProcedures()&lt;/font&gt;" style="html=1;verticalAlign=bottom;endArrow=block;edgeStyle=elbowEdgeStyle;elbow=vertical;curved=0;rounded=0;align=center;" parent="1" edge="1">
          <mxGeometry x="-0.8187" width="80" relative="1" as="geometry">
            <mxPoint x="940" y="1050.64" as="sourcePoint" />
            <mxPoint x="1601.2308443509614" y="1050.3200000000002" as="targetPoint" />
            <mxPoint as="offset" />
          </mxGeometry>
        </mxCell>
        <mxCell id="dS2BFjz72sKNmgG7DrdJ-4" value="SubRecipes" style="html=1;verticalAlign=bottom;endArrow=open;dashed=1;endSize=8;edgeStyle=elbowEdgeStyle;elbow=vertical;curved=0;rounded=0;align=center;" parent="1" edge="1">
          <mxGeometry relative="1" as="geometry">
            <mxPoint x="1600" y="1070.3200000000002" as="sourcePoint" />
            <mxPoint x="940" y="1070.64" as="targetPoint" />
          </mxGeometry>
        </mxCell>
        <mxCell id="dS2BFjz72sKNmgG7DrdJ-5" value="&lt;font style=&quot;font-size: 9px;&quot;&gt;addAll(subRecipe)&lt;/font&gt;" style="html=1;verticalAlign=bottom;endArrow=block;edgeStyle=elbowEdgeStyle;elbow=vertical;curved=0;rounded=0;" parent="1" edge="1">
          <mxGeometry x="0.0024" width="80" relative="1" as="geometry">
            <mxPoint x="940" y="1100.64" as="sourcePoint" />
            <mxPoint x="1150" y="1100.3200000000002" as="targetPoint" />
            <mxPoint as="offset" />
          </mxGeometry>
        </mxCell>
        <mxCell id="dS2BFjz72sKNmgG7DrdJ-6" value="" style="html=1;points=[];perimeter=orthogonalPerimeter;outlineConnect=0;targetShapes=umlLifeline;portConstraint=eastwest;newEdgeStyle={&quot;edgeStyle&quot;:&quot;elbowEdgeStyle&quot;,&quot;elbow&quot;:&quot;vertical&quot;,&quot;curved&quot;:0,&quot;rounded&quot;:0};shadow=0;imageAspect=1;fillOpacity=50;strokeOpacity=50;" parent="1" vertex="1">
          <mxGeometry x="1150" y="1010" width="10" height="20" as="geometry" />
        </mxCell>
        <mxCell id="dS2BFjz72sKNmgG7DrdJ-7" value="" style="html=1;points=[];perimeter=orthogonalPerimeter;outlineConnect=0;targetShapes=umlLifeline;portConstraint=eastwest;newEdgeStyle={&quot;edgeStyle&quot;:&quot;elbowEdgeStyle&quot;,&quot;elbow&quot;:&quot;vertical&quot;,&quot;curved&quot;:0,&quot;rounded&quot;:0};shadow=0;imageAspect=1;fillOpacity=50;strokeOpacity=50;" parent="1" vertex="1">
          <mxGeometry x="1150" y="1100" width="10" height="20" as="geometry" />
        </mxCell>
        <mxCell id="dS2BFjz72sKNmgG7DrdJ-8" value="" style="html=1;points=[];perimeter=orthogonalPerimeter;outlineConnect=0;targetShapes=umlLifeline;portConstraint=eastwest;newEdgeStyle={&quot;edgeStyle&quot;:&quot;elbowEdgeStyle&quot;,&quot;elbow&quot;:&quot;vertical&quot;,&quot;curved&quot;:0,&quot;rounded&quot;:0};shadow=0;imageAspect=1;fillOpacity=50;strokeOpacity=50;" parent="1" vertex="1">
          <mxGeometry x="1595" y="1050" width="10" height="20" as="geometry" />
        </mxCell>
        <mxCell id="CDvTWbdu8lq6fNU41OaB-1" style="edgeStyle=orthogonalEdgeStyle;rounded=0;orthogonalLoop=1;jettySize=auto;html=1;exitX=0.5;exitY=1;exitDx=0;exitDy=0;endArrow=none;endFill=0;dashed=1;" parent="1" edge="1">
          <mxGeometry relative="1" as="geometry">
            <mxPoint x="479.47" y="1720" as="targetPoint" />
            <mxPoint x="479.47" y="390" as="sourcePoint" />
          </mxGeometry>
        </mxCell>
        <mxCell id="CDvTWbdu8lq6fNU41OaB-3" value="cooks : ArrayList&amp;lt;Cook&amp;gt;" style="html=1;whiteSpace=wrap;fillColor=#fff2cc;strokeColor=#d6b656;" parent="1" vertex="1">
          <mxGeometry x="1720" y="1280" width="110" height="30" as="geometry" />
        </mxCell>
        <mxCell id="CDvTWbdu8lq6fNU41OaB-4" style="edgeStyle=orthogonalEdgeStyle;rounded=0;orthogonalLoop=1;jettySize=auto;html=1;endArrow=none;endFill=0;dashed=1;" parent="1" edge="1">
          <mxGeometry relative="1" as="geometry">
            <mxPoint x="1774.7000000000003" y="2360" as="targetPoint" />
            <mxPoint x="1774.7000000000003" y="1310" as="sourcePoint" />
            <Array as="points">
              <mxPoint x="1774.7000000000003" y="2344" />
            </Array>
          </mxGeometry>
        </mxCell>
        <mxCell id="CDvTWbdu8lq6fNU41OaB-5" value="create()" style="html=1;verticalAlign=bottom;endArrow=block;edgeStyle=elbowEdgeStyle;elbow=vertical;curved=0;rounded=0;" parent="1" edge="1">
          <mxGeometry width="80" relative="1" as="geometry">
            <mxPoint x="1530" y="1310" as="sourcePoint" />
            <mxPoint x="1720" y="1310" as="targetPoint" />
          </mxGeometry>
        </mxCell>
        <mxCell id="CDvTWbdu8lq6fNU41OaB-6" value="" style="html=1;points=[];perimeter=orthogonalPerimeter;outlineConnect=0;targetShapes=umlLifeline;portConstraint=eastwest;newEdgeStyle={&quot;edgeStyle&quot;:&quot;elbowEdgeStyle&quot;,&quot;elbow&quot;:&quot;vertical&quot;,&quot;curved&quot;:0,&quot;rounded&quot;:0};shadow=0;imageAspect=1;fillOpacity=50;strokeOpacity=50;" parent="1" vertex="1">
          <mxGeometry x="1770" y="1310" width="10" height="10" as="geometry" />
        </mxCell>
      </root>
    </mxGraphModel>
  </diagram>
</mxfile>
